PathFileType	4	(X/Y/Z)	none_P007_Squats1_0-2550.trc
DataRate	CameraRate	NumFrames	NumMarkers	Units	OrigDataRate	OrigDataStartFrame	OrigNumFrames
85	85	9	21	m	85	318	2550
Frame#	Time	RHip			RKnee			RAnkle			RBigToe			RSmallToe			RHeel			LHip			LKnee			LAnkle			LBigToe			LSmallToe			LHeel			Neck			Head			Nose			RShoulder			RElbow			RWrist			LShoulder			LElbow			LWrist		
		X1	Y1	Z1	X2	Y2	Z2	X3	Y3	Z3	X4	Y4	Z4	X5	Y5	Z5	X6	Y6	Z6	X7	Y7	Z7	X8	Y8	Z8	X9	Y9	Z9	X10	Y10	Z10	X11	Y11	Z11	X12	Y12	Z12	X13	Y13	Z13	X14	Y14	Z14	X15	Y15	Z15	X16	Y16	Z16	X17	Y17	Z17	X18	Y18	Z18	X19	Y19	Z19	X20	Y20	Z20	X21	Y21	Z21
319	3.752941176470588	0.8196574277929191	0.5001092318425756	0.4188214718567676	0.49555059882575114	0.3819967832204566	0.35168487665663406	0.7054471873703383	0.053956077827378844	0.36946316973339627	0.525188483034379	0.007929953324251561	0.33563389745409233	0.5850619167050248	0.011390430606587796	0.3007762611553862	0.7469396309677712	0.021163559508251717	0.37953491266092737	0.8067764419315203	0.49772994374377033	0.6260801051273946	0.47543328718794625	0.37820162524584855	0.6697685575732202	0.6925743062599942	0.055717205223839626	0.6564101054585421	0.5390832412829138	0.009394630725131073	0.6925462205111974	0.5826314095820408	0.016758730453582768	0.7192576555574799	0.7542559711801837	0.01899572453016959	0.6374714542981539	0.5185180855126889	0.8704661145187294	0.5176930864893935	0.257132837330648	1.0453989029622939	0.49552994476981976	0.32737173984090445	0.8722119656498658	0.5036377983228286	0.576630373030415	0.8547777195400305	0.38575746486440665	0.6623924572511345	0.8210444839261194	0.30744852128013567	0.5892433209022369	0.88784585325412	0.2754597634780806	0.5579672340281758	0.8465587325379492	0.6496739767988347	0.7346858334319454	0.7752735153732419	0.7388683423824848	0.6167557036753863	0.8740326431544253	0.7712117360830927
320	3.764705882352941	0.81792461242263	0.4954466584590969	0.4191100647759508	0.49398898704059435	0.38113007017301487	0.3511946298581281	0.7058248708766564	0.05383861967023362	0.3693744339391138	0.5247331842951687	0.007907421112095516	0.3355593742392295	0.5847353818095292	0.011166327604907626	0.30071885093397377	0.7463302515517399	0.02130849933356933	0.379439324741206	0.8059906981281363	0.4930624603667727	0.6265218210636324	0.473550717984175	0.37666187424726605	0.6687253412829843	0.6922856395690706	0.05561244722286286	0.6562153835695882	0.5384995205550984	0.009336477453016679	0.6925774528123126	0.5825020448242347	0.016691921927969307	0.7191303288809985	0.7550181458051298	0.018609083736916512	0.6374348816796221	0.5176449978337123	0.8637061248858705	0.5182176734236392	0.2571140945532754	1.0408083401205532	0.4954506429272885	0.32698778065522704	0.8663993840608366	0.5036818083394295	0.5763241595958005	0.8483808149754792	0.38614956339948003	0.6570281844908172	0.8149737592801128	0.3076593386819846	0.5875847627369958	0.8822747610027516	0.2748084749512283	0.5582064281957694	0.8402668600682488	0.6501451567562554	0.7370019766063695	0.766112481825155	0.7374830136462523	0.6171994073276709	0.8674969595071965	0.7706510889647366
321	3.776470588235294	0.8164299198976672	0.4905657709624605	0.419406246756137	0.49234662425406484	0.38026421768375535	0.35078946380498105	0.7061637420891048	0.053721770524376884	0.3692981663264257	0.5244438256094246	0.007859683391531152	0.33551361648191985	0.5844562864439063	0.010929255827085814	0.3007266618631017	0.7457083718294167	0.02142588205878336	0.3793464772819704	0.8046611409026817	0.48813712092875133	0.626948707723953	0.47108558228757397	0.37521544201964235	0.6674998518030699	0.6919548200915457	0.05554666259691974	0.6559643578591562	0.5382770022101205	0.00926886049363971	0.6927437827436841	0.5825955176706334	0.0166338010443512	0.7190889381812483	0.7555015618452928	0.01830297147639931	0.6373858055827172	0.5165614673733564	0.8570631187765302	0.5187792346015181	0.2571901960541593	1.0360153831278558	0.4954549680917878	0.3265966208447318	0.8605239687102769	0.503873317908638	0.5760110411256008	0.8425134353039249	0.38663487565827176	0.6545605814118373	0.8079066179667241	0.3081674801379136	0.5865008564553295	0.8765090554208245	0.2743896248954319	0.5582185075183005	0.834064978883539	0.6505418168073825	0.7407131033476276	0.7568452338665909	0.7358448615801956	0.6169132879575747	0.8608015061034994	0.7705271579284397
322	3.788235294117647	0.8152723809523807	0.4855152165076515	0.4196705394102355	0.4907451628720746	0.3794241834784739	0.35044288033861726	0.7064296447030625	0.05362337755110687	0.3692534792571248	0.5244180159114076	0.007771943412968019	0.3354973964297776	0.5843067933766857	0.010712275740617238	0.30079349741706357	0.7451485721033684	0.021506723477614835	0.3792724321082788	0.8028243051128506	0.4829809367999675	0.6272171151837921	0.4680704549908402	0.3739221364097838	0.6661015893900932	0.6915705256571041	0.05554078346436788	0.6556806858348866	0.5384518317546308	0.009179669997112297	0.6930504279435895	0.5829161777041287	0.01660282416345885	0.7191461030221161	0.7557576700931228	0.018141925298264305	0.6373071464957166	0.5153461320861834	0.8506458480370225	0.5193076310113482	0.2573582406354259	1.0310637445881141	0.4955294612300868	0.32613161414477004	0.8545946232231464	0.5042877641915985	0.5757212694588324	0.8371747102630249	0.387173346043971	0.6544842026253216	0.8001701763981061	0.3088448983569055	0.5861085551953129	0.8704961848241559	0.27435518135591735	0.5578826577553797	0.8279646356963641	0.650803803668263	0.7449724135253449	0.7479090300340906	0.7343824156711409	0.6158791651475942	0.8541854573891072	0.7709256260287454
323	3.8	0.8144586729927169	0.4803766481109844	0.41984447355023924	0.48925425645349174	0.37864635319254425	0.35010861035537055	0.7065932408471757	0.053561153361562495	0.3692412199503838	0.5246492379744258	0.007652728101092819	0.3354963465225186	0.584277933180285	0.010564609055081409	0.3008958114082666	0.7447275391661029	0.021541483988815675	0.37925739131948427	0.8006885966086471	0.47769341837253787	0.6272216227946592	0.4647339523584441	0.3727707883622217	0.6646018681183449	0.6911532490075021	0.05559361427541832	0.655387893642592	0.5390293792444014	0.009063379221356811	0.6934891804211423	0.5834890097952471	0.01660111559499714	0.7192939461819878	0.7558400065494336	0.018156590668396477	0.6371977806311501	0.5140770287979579	0.8445196680052817	0.5197181336917629	0.2575200709796806	1.0259437873327144	0.49569355855581104	0.3255520836187174	0.8486300293437755	0.5049659363080261	0.5754196672616871	0.8322433465987387	0.38770512433666854	0.6557105758336472	0.7921549436851621	0.3096408667616186	0.5864372619416325	0.8642826380820912	0.2747363750104649	0.5571882128593602	0.8219563978032972	0.6508880614594396	0.7489953084589074	0.7397643116677688	0.7333983206472148	0.6143186077496016	0.8478989835150641	0.7717300686218518
324	3.8117647058823527	0.8139323625889866	0.4752271792452037	0.4198588954213461	0.48790784561130063	0.37793963410879855	0.34973711533774154	0.7066708227877021	0.05354015548631413	0.36927080818169944	0.5250565884185722	0.007531571197593523	0.33549411371235743	0.584321590797016	0.010523687730409617	0.3009969822452267	0.7445068556397246	0.021519028842646195	0.3793498726891546	0.7985549059826993	0.4724278543318881	0.6269315177666478	0.46156315517012714	0.37165908021468386	0.6631683348354213	0.690736881506993	0.05567912884936924	0.6551040510984442	0.5399502865387307	0.008910086159015757	0.6940427370239397	0.5843074486852343	0.016611602055800707	0.7195086541062325	0.755791058998439	0.018333847002266746	0.6370672469439954	0.5128392319897784	0.8386965207929358	0.5199258485793584	0.2575494464364817	1.0206043368732332	0.49598097814802167	0.3248889232181229	0.8426353679180493	0.5058354702846385	0.574937049594251	0.827473712076879	0.3881378235440165	0.6572537504879066	0.78411894546475	0.3105247473258868	0.5876108840663097	0.8579578400293439	0.27543881142801246	0.5562173355649461	0.8160285868393526	0.6507551462241858	0.7520191328512793	0.7328507876244117	0.7331046885920224	0.612539150883051	0.8421414230278587	0.7726995178894568
325	3.823529411764706	0.8136584173295757	0.4701273709958922	0.41967328222642636	0.4867425117565731	0.37726303285470897	0.349285871169151	0.7067287461571231	0.053555194303722846	0.36936588810463866	0.5255587783301205	0.007446063629129346	0.33548164496969984	0.5844197839579	0.010582476658319389	0.3010680222328665	0.7444955233129914	0.021444052336154873	0.379568480527645	0.7967056750277859	0.4673253774641389	0.6263788728537123	0.45919905975510755	0.3704376234279225	0.6620325297048613	0.690333187477548	0.05575249552024156	0.6548464794189307	0.5410291354270734	0.008710716428044616	0.6946582242104928	0.5852462189627481	0.0166169860512681	0.7197469798498338	0.7556405178279038	0.018624148861745432	0.6369103891565119	0.5117421768230518	0.8331003921039863	0.5198823071254557	0.2573605020677539	1.01497369926926	0.49640202995433796	0.3242987693024971	0.8365374578788479	0.5066674611284243	0.5740405211061578	0.8225411819219273	0.3883757576254966	0.6584713038878897	0.7762454688683177	0.31137757676883404	0.5897656353493527	0.8515989216601374	0.2762714701425935	0.5550734299069177	0.8101664578793758	0.6503806741053395	0.7532589749929347	0.7275167917102869	0.7336758035949946	0.6107735723098477	0.8369862805244908	0.7735924306012787
326	3.835294117647059	0.8136004484862707	0.4651172265469885	0.41930742797969667	0.4858145798567432	0.3765534780011531	0.3487344604754767	0.7068600358862299	0.053598753257458845	0.36954239276380607	0.5261187315200025	0.007425102405117368	0.3354459711113985	0.5845969583027779	0.010683066090367737	0.3011054796726215	0.7446535896918149	0.021348887422305566	0.37988370689066	0.79526074695819	0.4624506207120981	0.6256237875619757	0.4580959853476355	0.3690027599941295	0.6613733929571353	0.6899349638412913	0.05576762799061483	0.6546146636720995	0.5420361213336422	0.008467798077822553	0.6952612636662902	0.5860895288028013	0.01661444482750577	0.7199556653004839	0.7554116471713045	0.018959741770037668	0.6366963999834306	0.5108942986062154	0.8275677002287731	0.5195956844048233	0.25693789986009863	1.008974662679896	0.4969249110061257	0.3240123786554052	0.8301931322547592	0.5071748583898341	0.5726246495233572	0.8171645270693043	0.38837746734118905	0.6589479764775048	0.7687975196832347	0.3119855000378129	0.5926949252887821	0.8452713587819884	0.2770205185959263	0.5538245545712929	0.8043428041394511	0.6497714871680138	0.751998385570592	0.7239550633362316	0.7352553740494275	0.6091501906176944	0.8323222121144965	0.7742340692142491
327	3.847058823529412	0.813628771707043	0.4602001021354783	0.41882397000618626	0.4851674599449608	0.37576408946434814	0.3481022506416627	0.7071556340254658	0.05366020150632834	0.36978411404493344	0.526747010313832	0.0074686111943757265	0.3353677703264213	0.5848948956911024	0.01075297327320251	0.3011285583465706	0.7449478927179111	0.02128105134141096	0.38023105174331195	0.7941006756911929	0.4577722779271992	0.6247288341190919	0.4583100206627578	0.3673654794323366	0.6612435604313419	0.6895394268421418	0.05569913203435409	0.654368564419288	0.5428410105144973	0.008190838911595454	0.6958070936885914	0.5866600161055944	0.0166089630853795	0.720094551342481	0.7551211859552025	0.019272136487655	0.6363926923939653	0.5103608434073442	0.8219045767838509	0.5191287753255338	0.25632406163788835	1.0025668182570018	0.49748203709963096	0.32417141280867257	0.8234999439494708	0.50722280756423	0.5708560811571323	0.8112611657314508	0.3882018852254092	0.6585439505496673	0.7619924487575295	0.3121874388828127	0.5957949357216948	0.8390147588557332	0.27754935754314985	0.5525055573674188	0.7985198791546504	0.6489679609357408	0.7478798169988606	0.7221182103817219	0.7378735748395141	0.6077530788736694	0.8278700456150787	0.7745162716207379
